<mxfile host="app.diagrams.net" modified="2023-11-12T16:21:35.499Z" agent="Mozilla/5.0 (Macintosh; Intel Mac OS X 10_15_7) AppleWebKit/537.36 (KHTML, like Gecko) Chrome/118.0.0.0 Safari/537.36" version="22.1.0" etag="v1PrgsN5oS1zrrRVAIA_" type="github">
  <diagram name="Page-1" id="JxGWJynh5mVTyufIqIia">
    <mxGraphModel>
      <root>
        <mxCell id="0" />
        <mxCell id="1" parent="0" />
      </root>
    </mxGraphModel>
  </diagram>
</mxfile>
